# xmcd
#
# Track frame offsets:
# 150
# 31172
# 55536
# 83964
# 112730
# 151737
# 181885
# 202225
# 231169
# 258469
# 300721
#
# Disc length: 4512 seconds
#
# Revision: 0
# Processed by: cddbd v1.4b42PL1 Copyright (c) Steve Scherf et al.
# Submitted via: Audion 2.5.0 (http://www.panic.com/audion/)
#
DISCID=82119e0b
DTITLE=VOL. 2 - PRO-ZAK TRAX
DYEAR=1900
DGENRE=
TTITLE0=Prof Oz "Thin Limit"
TTITLE1=Seven Dub "Soul Runnings"
TTITLE2=Plaisir de France "Suave Tempo"
TTITLE3=D.O.D. "Melancolia"
TTITLE4=Phabao vs de Pompidou "John has a phoot-grant"
TTITLE5=Moonraker "Je peux voir le temps passer (David Chang Bio Club Mix)"
TTITLE6=Luluxpo "1+1=Love"
TTITLE7=Whash "Kool"
TTITLE8=Sch "Billy"
TTITLE9=Grant Phabao "Jus'play my mind"
TTITLE10=J.Grau "Mongo Ye !"
EXTD=
EXTT0=
EXTT1=
EXTT2=
EXTT3=
EXTT4=
EXTT5=
EXTT6=
EXTT7=
EXTT8=
EXTT9=
EXTT10=
PLAYORDER=
